<mxfile
  host="Electron" 
  agent="Mozilla/5.0 (Macintosh; Intel Mac OS X 10_15_7) AppleWebKit/537.36 (KHTML, like Gecko) draw.io/25.0.2 Chrome/128.0.6613.186 Electron/32.2.5 Safari/537.36" 
  version="25.0.2"
  >
  <diagram
    name="-"
    >
    <mxGraphModel
      grid="1" 
      gridSize="10" 
      guides="1" 
      tooltips="1" 
      connect="1" 
      arrows="1" 
      fold="1" 
      page="1" 
      pageScale="1" 
      pageWidth="1" 
      pageHeight="1" 
      math="0" 
      shadow="0"
      >
      <root>
        <mxCell
          id="page"
          />
        <mxCell
          id="root" 
          parent="page"
          />
        <mxCell
          style="verticalAlign=top;aspect=fixed;align=center;spacingLeft=5;spacingRight=5;spacingBottom=5;strokeColor=none;" 
          id="shape_" 
          parent="root" 
          value=" " 
          vertex="1"
          >
          <mxGeometry
            as="geometry" 
            width="120" 
            height="120" 
            x="0" 
            y="0"
            />
          </mxCell>
        <mxCell
          style="rounded=1;whiteSpace=wrap;verticalAlign=top;align=center;shape=image;editableCssRules=.*;verticalLabelPosition=bottom;labelBackgroundColor=default;aspect=fixed;imageAspect=0;image=data:image/svg+xml,PHN2ZyB4bWxucz0iaHR0cDovL3d3dy53My5vcmcvMjAwMC9zdmciIHZpZXdCb3g9Ii0wLjUgLTAuNSAyOCAyNy45NDYiIGhlaWdodD0iMjcuOTQ2IiB3aWR0aD0iMjgiPiYjeGE7CSAgPHN0eWxlIHR5cGU9InRleHQvY3NzIj4uc3QwIHsgc3RvcC1jb2xvcjogcmdiKDM1LCAxNDksIDI1NSk7IH0gLnN0MSB7IHN0b3AtY29sb3I6IHJnYigwLCA4NywgMjEwKTsgfSA8L3N0eWxlPiYjeGE7CTxkZWZzPiYjeGE7CQk8bGluZWFyR3JhZGllbnQgZ3JhZGllbnRVbml0cz0idXNlclNwYWNlT25Vc2UiIHkyPSIyNS4zMDEiIHgyPSIyMy40MTIiIHkxPSIzLjQ2NiIgeDE9IjIuMDM5IiBpZD0iQSI+JiN4YTsJCQk8c3RvcCBjbGFzcz0ic3QwIi8+JiN4YTsJCQk8c3RvcCBjbGFzcz0ic3QxIiBvZmZzZXQ9IjEiLz4mI3hhOwkJPC9saW5lYXJHcmFkaWVudD4mI3hhOwk8L2RlZnM+JiN4YTsJPHBhdGggZmlsbD0idXJsKCNBKSIgZD0iTTI3LjA2MiAyNS4wOTRjLjI5Mi4yOTIuNDM4LjYwMi40MzguOTI5YTEuMzYgMS4zNiAwIDAgMS0uNDM3Ljk4NSAxLjM2IDEuMzYgMCAwIDEtLjk4NS40MzhjLS4xODUtLjAwMi0uMzY4LS4wNDItLjUzNy0uMTE3YTEuMzYgMS4zNiAwIDAgMS0uNDQ3LS4zMmwtNS4xNDItNS4xNDJjLTEuMTI5LjkxMi0yLjQwNCAxLjMzLTMuODI3IDEuMjU4cy0yLjY2LS42MzktMy43MTktMS42OTZMNS42NzkgMTQuNzZjLS40OS0uNTE3LS44OTUtMS4xMDctMS4yMDItMS43NWE1LjU5IDUuNTkgMCAwIDEtLjQ5Mi0xLjk2OWMtLjAwMS0uNjg0LjA5LTEuMzY1LjI3My0yLjAyNS4yMTktLjY1Ni41NjUtMS4yNTYgMS4wNC0xLjgwM2wtNS4zNi01LjMwOUExLjM2IDEuMzYgMCAwIDEtLjUuOTIxYzAtLjM2Mi4xNDUtLjY5MS40MzgtLjk4M0ExLjM2IDEuMzYgMCAwIDEgLjkyMy0uNWMuMzY0IDAgLjY5MS4xNDUuOTg0LjQzN2w1LjMwNCA1LjMwNEM4LjI4IDQuMzUgOS42NDkgMy45IDExLjAzOSAzLjk4M2MxLjQyMS4wNzQgMi42Ni42MzkgMy43MTkgMS42OTdsNi43MjcgNi42NzFjLjUwOS41NDYuOTEgMS4xNDggMS4yMDIgMS44MDQuNTgxIDEuMjM0LjY2IDIuNjQ2LjIxOSAzLjkzNy0uMjE4LjY1NS0uNTUyIDEuMjY2LS45ODUgMS44MDR6TTcuNjQ4IDguNzQyYy0uMjY0LjI1NS0uNDczLjU2MS0uNjEzLjlzLS4yMTEuNzAyLS4yMDYgMS4wNjljMCAuNzMuMjczIDEuMzY5LjgxOSAxLjkxNUwxMCAxNS4wMzEgMTUuMDMxIDEwbC0yLjM1Mi0yLjQwNmMtLjI1NS0uMjY0LS41NjEtLjQ3My0uODk5LS42MTRzLS43MDMtLjIxMS0xLjA2OS0uMjA2Yy0uNzI4IDAtMS4zODQuMjc1LTEuOTY5LjgyMXptNi43MjcgMTAuNjFjLjI0Ni4yNi41NDMuNDY3Ljg3Mi42MDhzLjY4NC4yMTMgMS4wNDIuMjEyYy43NjUgMCAxLjQyMS0uMjc1IDEuOTY5LS44MjNsMS4xNDgtMS4wOTJjLjU0OC0uNTg0LjgyMS0xLjI0MS44MjEtMS45NjkgMC0uNzY3LS4yNzMtMS40MjMtLjgyMS0xLjk2OUwxNyAxMS45NjkgMTEuOTY5IDE3eiIvPiYjeGE7PC9zdmc+;strokeColor=none;" 
          id="cloud_connector_sap_" 
          parent="shape_" 
          value=" " 
          vertex="1"
          >
          <mxGeometry
            as="geometry" 
            width="60" 
            height="60" 
            x="30" 
            y="30"
            />
          </mxCell>
        </root>
      </mxGraphModel>
    </diagram>
  </mxfile>